<svg xmlns="http://www.w3.org/2000/svg" viewBox="0 0 800 450" role="img" aria-label="Dashboard placeholder">
  <defs>
    <linearGradient id="dashBg" x1="0" y1="0" x2="1" y2="1">
      <stop offset="0%" stop-color="#0F172A"/>
      <stop offset="100%" stop-color="#1E293B"/>
    </linearGradient>
  </defs>
  <rect width="800" height="450" fill="url(#dashBg)" rx="12"/>
  <!-- top bar -->
  <rect x="24" y="24" width="752" height="40" fill="#334155" rx="8"/>
  <circle cx="48" cy="44" r="8" fill="#22D3EE"/>
  <rect x="64" y="38" width="120" height="12" fill="#94A3B8" rx="3"/>
  <!-- sidebar -->
  <rect x="24" y="80" width="180" height="346" fill="#1E293B" stroke="#334155" rx="8"/>
  <rect x="40" y="100" width="120" height="10" fill="#475569" rx="2"/>
  <rect x="40" y="124" width="100" height="10" fill="#475569" rx="2"/>
  <rect x="40" y="148" width="140" height="10" fill="#22D3EE" rx="2"/>
  <rect x="40" y="172" width="90" height="10" fill="#475569" rx="2"/>
  <rect x="40" y="196" width="110" height="10" fill="#475569" rx="2"/>
  <!-- main cards -->
  <rect x="220" y="80" width="170" height="100" fill="#1E293B" stroke="#334155" rx="8"/>
  <rect x="236" y="100" width="80" height="10" fill="#94A3B8" rx="2"/>
  <text x="236" y="155" fill="#22D3EE" font-family="system-ui" font-size="32" font-weight="700">87%</text>
  <rect x="406" y="80" width="170" height="100" fill="#1E293B" stroke="#334155" rx="8"/>
  <rect x="422" y="100" width="80" height="10" fill="#94A3B8" rx="2"/>
  <text x="422" y="155" fill="#F97316" font-family="system-ui" font-size="32" font-weight="700">12</text>
  <rect x="592" y="80" width="184" height="100" fill="#1E293B" stroke="#334155" rx="8"/>
  <rect x="608" y="100" width="80" height="10" fill="#94A3B8" rx="2"/>
  <text x="608" y="155" fill="#22C55E" font-family="system-ui" font-size="32" font-weight="700">+8</text>
  <!-- subject cards row -->
  <rect x="220" y="200" width="120" height="100" fill="#1E293B" stroke="#334155" rx="8"/>
  <rect x="220" y="200" width="120" height="4" fill="#F97316" rx="2"/>
  <text x="232" y="245" fill="#E2E8F0" font-family="system-ui" font-size="13" font-weight="600">PMP</text>
  <rect x="356" y="200" width="120" height="100" fill="#1E293B" stroke="#334155" rx="8"/>
  <rect x="356" y="200" width="120" height="4" fill="#FF9900" rx="2"/>
  <text x="368" y="245" fill="#E2E8F0" font-family="system-ui" font-size="13" font-weight="600">AWS CLF-C02</text>
  <rect x="492" y="200" width="120" height="100" fill="#1E293B" stroke="#334155" rx="8"/>
  <rect x="492" y="200" width="120" height="4" fill="#DC2626" rx="2"/>
  <text x="504" y="245" fill="#E2E8F0" font-family="system-ui" font-size="13" font-weight="600">German A1</text>
  <rect x="628" y="200" width="148" height="100" fill="#1E293B" stroke="#334155" rx="8"/>
  <rect x="628" y="200" width="148" height="4" fill="#991B1B" rx="2"/>
  <text x="640" y="245" fill="#E2E8F0" font-family="system-ui" font-size="13" font-weight="600">German A2</text>
  <!-- recent activity -->
  <rect x="220" y="320" width="556" height="106" fill="#1E293B" stroke="#334155" rx="8"/>
  <rect x="236" y="340" width="160" height="10" fill="#94A3B8" rx="2"/>
  <rect x="236" y="362" width="524" height="8" fill="#334155" rx="2"/>
  <rect x="236" y="382" width="380" height="8" fill="#334155" rx="2"/>
  <rect x="236" y="402" width="450" height="8" fill="#334155" rx="2"/>
  <!-- swap-me hint -->
  <text x="400" y="442" fill="#475569" font-family="system-ui" font-size="9" text-anchor="middle">screenshot placeholder — replace with real dashboard capture at /screenshots/dashboard.png</text>
</svg>
